<svg fill="none" height="557" viewBox="0 0 557 557" width="557" xmlns="http://www.w3.org/2000/svg"><path d="m172.827 476.01c9.402 46.242 49.506 80.99 97.553 80.99 50.581 0 92.36-38.511 98.781-88.401 15.818 10.798 34.831 17.094 55.283 17.094 55.028 0 99.637-45.578 99.637-101.802 0-24.724-8.626-47.389-22.971-65.026 33.098-16.552 55.89-51.302 55.89-91.491 0-56.224-44.609-101.802-99.637-101.802-.916 0-1.829.012-2.739.037 1.791-7.637 2.739-15.608 2.739-23.806 0-56.2244-44.609-101.803-99.636-101.803-32.307 0-61.021 15.7096-79.227 40.0599-18.206-24.3503-46.92-40.0599-79.227-40.0599-55.027 0-99.6363 45.5786-99.6363 101.803 0 8.198.9483 16.169 2.7393 23.806-.546-.015-1.093-.025-1.641-.031-.366-.004-.732-.006-1.0983-.006-55.0278 0-99.6367 45.578-99.6367 101.802 0 39.561 22.085 73.85 54.3447 90.701-14.7334 17.747-23.6196 40.721-23.6196 65.816 0 56.224 44.6089 101.802 99.6369 101.802 15.188 0 29.583-3.472 42.465-9.683z" fill="#000"/></svg>